<?xml version="1.0" encoding="UTF-8" standalone="no"?>
<svg id="svg8" xmlns:rdf="http://www.w3.org/1999/02/22-rdf-syntax-ns#" xmlns="http://www.w3.org/2000/svg" height="36" width="24" version="1.1" xmlns:cc="http://creativecommons.org/ns#" xmlns:dc="http://purl.org/dc/elements/1.1/" viewBox="0 0 6.7733334 10.16">
 <g id="layer1" transform="translate(0 -286.84)">
  <rect id="rect4963" height="10.16" width="6.7733" y="286.84" x="-1.7347e-18" stroke-width=".88411" fill="#530080"/>
  <g id="g4310" transform="matrix(1.0489 0 0 .98335 -.37430 5.0586)">
   <rect id="rect4777" height="4.305" width="3.2288" y="290.57" x="1.9712" stroke-width="1.998" fill="#808080"/>
  </g>
  <g id="g4386" stroke-width="1.998">
   <rect id="rect4775" height="1.6933" width="3.3867" y="288.82" x="1.6934" fill="#ccc"/>
   <rect id="rect4784" height="1.1289" width=".28222" y="289.1" x="1.9756" fill="#520"/>
  </g>
  <g stroke-width="1.998" fill="#520">
   <circle id="path4791" cx="2.2776" cy="293.96" r=".16558"/>
   <circle id="path4793" cx="2.8157" cy="293.02" r=".20697"/>
   <circle id="path4799" cx="2.4431" cy="294.76" r=".28976"/>
  </g>
  <g>
   <circle id="path4793-7" cx="2.4762" cy="294.27" r=".14902" stroke-width="1.4386" fill="#333"/>
   <circle id="path4793-7-2" cx="2.8858" cy="294.72" r=".11148" stroke-width="1.191" fill="#1a1a1a"/>
   <circle id="path4793-7-6" cx="1.8843" cy="294.39" r=".26906" stroke-width="2.5974" fill="#333"/>
   <circle id="path4793-7-1" cx="2.8819" cy="293.95" r=".14902" stroke-width="1.4386" fill="#803300"/>
   <circle id="path4793-7-10" cx="2.3852" cy="293.47" r=".14902" stroke-width="1.4386" fill="#333"/>
   <ellipse id="path4793-7-61" rx=".16435" ry=".16696" cy="294.34" cx="2.85" stroke-width="1.5991" fill="#333"/>
   <ellipse id="path4793-7-2-4" rx=".13628" ry=".13660" cy="293.48" cx="2.7781" stroke-width="1.3171" fill="#1a1a1a"/>
   <ellipse id="path4793-7-1-4" rx=".21111" ry=".21525" cy="294.92" cx="1.8512" stroke-width="2.0578" fill="#803300"/>
   <circle id="path4924" cx="2.5931" cy="293.8" r=".15212" stroke-width=".33129" fill="#f2f2f2"/>
   <circle id="path4924-2" cx="2.4214" cy="293.09" r=".15212" stroke-width=".33129" fill="#f2f2f2"/>
  </g>
  <g id="g4382">
   <path id="rect4779" d="m2.9208 291.61 2.1525-0.82317v4.2709l-2.1525 0.8279z" stroke-width="1.6628" fill="#ccc"/>
   <path id="rect4788" d="m3.1542 291.75 0.20114-0.0774v1.6325l-0.20114 0.0774z" stroke-width=".16113" fill="#520"/>
  </g>
 </g>
</svg>
